REM DIRINDEX 1\2,1\3,1\4,1\5,1\6,1\7
REM DIRNAME folder01,folder02,folder03,folder04,folder05,folder06,folder07
TITLE ""
FILE "Disk3Track22.mp3" MP3
  TRACK 01 AUDIO
    TITLE "7:cjc104_1307"
    INDEX 01 00:00:00
  TRACK 02 AUDIO
    TITLE "0:"
    INDEX 01 00:03:12
  TRACK 03 AUDIO
    TITLE "3:cjc104_1308"
    INDEX 01 00:04:13
  TRACK 04 AUDIO
    TITLE "0:"
    INDEX 01 00:06:28
  TRACK 05 AUDIO
    TITLE "3:cjc104_1309"
    INDEX 01 00:07:31
  TRACK 06 AUDIO
    TITLE "0:"
    INDEX 01 00:09:40
  TRACK 07 AUDIO
    TITLE "3:cjc104_1310"
    INDEX 01 00:10:41
  TRACK 08 AUDIO
    TITLE "0:"
    INDEX 01 00:12:54
  TRACK 09 AUDIO
    TITLE "3:cjc104_1311"
    INDEX 01 00:13:55
  TRACK 10 AUDIO
    TITLE "0:"
    INDEX 01 00:15:64
  TRACK 11 AUDIO
    TITLE "3:cjc104_1312"
    INDEX 01 00:16:65
  TRACK 12 AUDIO
    TITLE "0:"
    INDEX 01 00:18:42
  TRACK 13 AUDIO
    TITLE "3:cjc104_1313"
    INDEX 01 00:19:40
  TRACK 14 AUDIO
    TITLE "0:"
    INDEX 01 00:21:29
  TRACK 15 AUDIO
    TITLE "3:cjc104_1314"
    INDEX 01 00:22:29
  TRACK 16 AUDIO
    TITLE "0:"
    INDEX 01 00:24:33
  TRACK 17 AUDIO
    TITLE "3:cjc104_1315"
    INDEX 01 00:25:41
  TRACK 18 AUDIO
    TITLE "0:"
    INDEX 01 00:27:22
  TRACK 19 AUDIO
    TITLE "3:cjc104_1316"
    INDEX 01 00:28:19
  TRACK 20 AUDIO
    TITLE "0:"
    INDEX 01 00:30:08
  TRACK 21 AUDIO
    TITLE "3:cjc104_1317"
    INDEX 01 00:31:08
  TRACK 22 AUDIO
    TITLE "0:"
    INDEX 01 00:33:13
  TRACK 23 AUDIO
    TITLE "3:cjc104_1318"
    INDEX 01 00:34:16
  TRACK 24 AUDIO
    TITLE "0:"
    INDEX 01 00:35:53
  TRACK 25 AUDIO
    TITLE "3:cjc104_1319"
    INDEX 01 00:36:58
  TRACK 26 AUDIO
    TITLE "0:"
    INDEX 01 00:38:47
  TRACK 27 AUDIO
    TITLE "3:cjc104_1320"
    INDEX 01 00:39:49
  TRACK 28 AUDIO
    TITLE "0:"
    INDEX 01 00:41:47
  TRACK 29 AUDIO
    TITLE "3:cjc104_1321"
    INDEX 01 00:42:45
  TRACK 30 AUDIO
    TITLE "0:"
    INDEX 01 00:45:00
  TRACK 31 AUDIO
    TITLE "3:cjc104_1322"
    INDEX 01 00:46:06
  TRACK 32 AUDIO
    TITLE "0:"
    INDEX 01 00:47:60
  TRACK 33 AUDIO
    TITLE "3:cjc104_1323"
    INDEX 01 00:50:21
  TRACK 34 AUDIO
    TITLE "0:"
    INDEX 01 00:52:20
  TRACK 35 AUDIO
    TITLE "3:cjc104_1324"
    INDEX 01 00:53:27
  TRACK 36 AUDIO
    TITLE "0:"
    INDEX 01 00:54:70
  TRACK 37 AUDIO
    TITLE "3:cjc104_1325"
    INDEX 01 00:55:73
  TRACK 38 AUDIO
    TITLE "0:"
    INDEX 01 00:57:54
  TRACK 39 AUDIO
    TITLE "3:cjc104_1326"
    INDEX 01 00:58:62
  TRACK 40 AUDIO
    TITLE "0:"
    INDEX 01 01:00:47
  TRACK 41 AUDIO
    TITLE "3:cjc104_1327"
    INDEX 01 01:01:50
  TRACK 42 AUDIO
    TITLE "0:"
    INDEX 01 01:04:03
  TRACK 43 AUDIO
    TITLE "3:cjc104_1328"
    INDEX 01 01:05:03
  TRACK 44 AUDIO
    TITLE "0:"
    INDEX 01 01:07:23
  TRACK 45 AUDIO
    TITLE "3:cjc104_1329"
    INDEX 01 01:08:23
  TRACK 46 AUDIO
    TITLE "0:"
    INDEX 01 01:10:08
  TRACK 47 AUDIO
    TITLE "3:cjc104_1330"
    INDEX 01 01:11:07
  TRACK 48 AUDIO
    TITLE "0:"
    INDEX 01 01:13:08
  TRACK 49 AUDIO
    TITLE "3:cjc104_1331"
    INDEX 01 01:14:08
  TRACK 50 AUDIO
    TITLE "0:"
    INDEX 01 01:16:03
  TRACK 51 AUDIO
    TITLE "3:cjc104_1332"
    INDEX 01 01:17:02
  TRACK 52 AUDIO
    TITLE "0:"
    INDEX 01 01:18:60
  TRACK 53 AUDIO
    TITLE "3:cjc104_1333"
    INDEX 01 01:19:68
  TRACK 54 AUDIO
    TITLE "0:"
    INDEX 01 01:21:53
  TRACK 55 AUDIO
    TITLE "3:cjc104_1334"
    INDEX 01 01:22:54
  TRACK 56 AUDIO
    TITLE "0:"
    INDEX 01 01:24:24
  TRACK 57 AUDIO
    TITLE "3:cjc104_1335"
    INDEX 01 01:25:19
  TRACK 58 AUDIO
    TITLE "0:"
    INDEX 01 01:26:54
  TRACK 59 AUDIO
    TITLE "3:cjc104_1336"
    INDEX 01 01:27:51
  TRACK 60 AUDIO
    TITLE "0:"
    INDEX 01 01:29:29
  TRACK 61 AUDIO
    TITLE "3:cjc104_1337"
    INDEX 01 01:30:34
  TRACK 62 AUDIO
    TITLE "0:"
    INDEX 01 01:32:04
  TRACK 63 AUDIO
    TITLE "3:cjc104_1338"
    INDEX 01 01:33:05
  TRACK 64 AUDIO
    TITLE "0:"
    INDEX 01 01:34:54
  TRACK 65 AUDIO
    TITLE "3:cjc104_1339"
    INDEX 01 01:35:53
  TRACK 66 AUDIO
    TITLE "0:"
    INDEX 01 01:37:44
